<?xml version="1.0" encoding="utf-8"?>
<!-- Generator: Adobe Illustrator 21.0.0, SVG Export Plug-In . SVG Version: 6.00 Build 0)  -->
<svg version="1.1" id="Layer_1" xmlns="http://www.w3.org/2000/svg" xmlns:xlink="http://www.w3.org/1999/xlink" x="0px" y="0px"
	 viewBox="0 0 512 512" style="enable-background:new 0 0 512 512;" xml:space="preserve">
<g>
	<g>
		<path d="M263.3,418.9L251.3,403l-42.7-57h1.1l19-55.9c0.8-3.5,1.4-6.4,1.9-9.1c1.2-6.8-1.2-14.7-3.3-21.7l-0.4-1.3
			c0-0.2-0.1-0.3-0.2-0.4l-35.9-10.4v-38.2l0.7,0.4c0.4,0.2,0.8,0.4,1.3,0.7l3.4,1.8l30.5,15.8c-0.1-0.4-0.3-0.8-0.4-1.3
			c-0.6-2.1-1.4-4.4-2.9-5.9c-3.3-3.4-7-6.5-10.6-9.5c-2.3-1.9-4.7-3.9-6.9-6l-2.2-2c-5.8-5.2-11.7-10.6-17.2-16.4
			c-7.8-8.3-15.1-12.6-23.6-14.1c-11.9-2.1-20.6-7.4-26.5-16.2l-0.9-1.3l1.5,0.6c7.5,2.9,15.1,5.7,22.6,8.6l0.3,0.1l1.9-2
			c-22.8-7.9-22.8-26-20.3-41l0.4-2.2l7.3,26.6l2.3-0.2c-4.8-27.5-0.8-53.4,12-77l1.8-3.3l-0.8,3.6c-0.5,2.3-1.1,4.6-1.7,7
			c-1.3,5.3-2.7,10.8-3.5,16.3c-1.1,7.1-1.4,14.4-0.9,22.3c1.5-3.2,3-6.4,4.5-9.6l3.1-6.5l-0.5,3.4c-5.1,33.5-4.5,41.9,4.3,52.4
			c0.4-1.9,0.7-3.9,1-5.8c2.9-16.7,5.7-32.5,21.7-43.3l2.2-1.5l-1.5,2.2c-22.7,33-17.4,61,16.9,88.2c-0.7-6.1-1.3-10.8-1.8-15.5
			l0-0.4l2.3-1.1l0.2,0.5c0.7,1.6,1.5,3.1,2.2,4.7c1.7,3.6,3.5,7.3,5,11.1c2.1,5.2,4.8,8.3,9.9,10.7c17.5,8.5,21.8,16.9,23.6,24.1
			c7.7,1.7,12.7,0.9,16.7-7.6c3-6.4,10.2-12.7,16.7-14.7c18.7-5.8,28.5-16.5,30.8-33.7l0.1-0.6l0.6,0.2c0.8,0.2,1.5,0.5,2.3,0.7
			l0.4,0.1l0,0.7c-0.4,5.9-0.8,11.8-1.2,17.7c10.6-6.1,20.2-24.1,18.6-35c-0.3-2.1-1.8-4.2-3.2-6.3l-0.5-0.7
			c-3.1-4.5-6.4-9-9.5-13.3c-1.1-1.5-2.2-3.1-3.4-4.6l-0.3-0.4l1.1-1c0.5-0.4,0.9-0.8,1.4-1.3l0.4-0.4l9.8,14.3l3.1-2
			c0.5-2.6,0.9-5.2,1.4-8.1l2.1-11.9l0.6,2.1c0.6,2.1,1.1,3.9,1.6,5.7c1.1,3.8,2.1,7.2,2.8,10.5c0.3,1.1,0.5,2.1,0.7,3.2
			c0.8,3.6,1.6,7.3,3.1,11c9.3-14,6.8-28.4,4.2-43.6c-0.4-2.3-0.8-4.5-1.1-6.8l-0.5-3.2l1.6,3.2c2.3,4.6,4.6,9.2,6.9,13.8
			c0.4-0.1,0.7-0.1,1.1-0.2l-7.3-52.1l1.3,2.6c13.6,26.1,13.5,53,11.3,78.3c0.5,0.1,1.1,0.2,1.6,0.4c2.1-7.8,4.3-15.6,6.4-23.3
			l0.3-1.2l0.6,1.1c5.4,10.4-0.2,30.3-11.1,39.4c-3.6,3-6.9,6.5-10.1,9.8c-2.6,2.7-5.3,5.6-8.2,8.1c-11,9.9-22.5,19.8-34,29.3
			c-2.9,2.4-5.9,4.5-8.9,6.6c-3.1,2.1-6.3,4.4-9.2,6.8c-1.4,1.2-2.2,3.2-2.9,5c-0.1,0.3-0.3,0.7-0.4,1c6.9-3.3,13.5-6.5,20.1-9.6
			l12.6-6c0.7-0.3,1.3-0.6,2-1l0.7-0.3l2.3,31L288.1,261c-0.1,0.2-0.2,0.5-0.2,0.7c-2.9,8.8-3.5,18.1-1.9,28.4l20.8,55.9h0.5
			l-0.3,0.5l0,0.1l-0.2,0.2l-2.7,4.5L263.3,418.9z M210.5,346.7l52.7,70.4l42.3-70.1h-0.3l0.6-0.7l-20.9-56v-0.1
			c-1.7-10.4-1-19.8,1.9-28.7c0.1-0.3,0.2-0.7,0.3-0.9l0.1-0.2l38.6-19.8l-2.1-28.9c-0.5,0.2-0.9,0.4-1.4,0.6l-12.6,6
			c-7,3.3-14,6.7-21.4,10.2l-1.3,0.6l0.7-1.3c0.3-0.6,0.6-1.4,0.9-2.1c0.7-1.9,1.6-4,3.2-5.4c2.9-2.5,6.1-4.7,9.2-6.8
			c3-2.1,6.1-4.2,8.9-6.5c11.5-9.5,22.9-19.4,33.9-29.3c2.8-2.5,5.5-5.4,8.1-8.1c3.2-3.4,6.6-6.9,10.2-9.9l0,0
			c10.2-8.5,15.7-26.6,11.5-36.9c-2,7.4-4.1,14.9-6.1,22.4l-0.1,0.5l-0.5-0.1c-0.8-0.2-1.7-0.4-2.5-0.6l-0.4-0.1l0-0.4
			c2.5-28.1,1.8-51.8-9.7-75.5l6.6,47.1l-0.9,0.2c-0.5,0.1-1,0.2-1.5,0.3l-0.4,0.1l-0.2-0.4c-1.9-3.8-3.8-7.7-5.7-11.5
			c0.2,1.2,0.4,2.4,0.6,3.6c2.6,15,5.2,30.6-4.9,45.1l-0.5,0.7l-0.4-0.8c-1.7-4-2.6-8-3.5-12c-0.2-1.1-0.5-2.1-0.7-3.2
			c-0.8-3.3-1.7-6.6-2.8-10.4c-0.3-1.1-0.7-2.3-1-3.6l-1.3,7.6c-0.5,3-1,5.7-1.5,8.4l0,0.2l-4.2,2.7l-9.7-14.2
			c-0.3,0.3-0.7,0.6-1,0.9l-0.4,0.4c1,1.4,2.1,2.8,3.1,4.3c3.2,4.3,6.4,8.8,9.6,13.3l0.5,0.7c1.5,2.1,3,4.3,3.4,6.7
			c1.8,11.6-8.6,30.7-19.9,36.5l-0.8,0.4l0.1-0.9c0.4-6.1,0.8-12.3,1.2-18.5c-0.5-0.1-0.9-0.3-1.4-0.4
			c-2.5,17.3-12.5,28.1-31.5,33.9c-6.3,1.9-13.2,8-16.1,14.2c-4.3,9.2-9.9,10-18.1,8.1l-0.3-0.1l-0.1-0.3
			c-3-12.4-12.9-18.7-23.2-23.7c-5.3-2.6-8.3-5.8-10.4-11.3c-1.5-3.7-3.2-7.4-4.9-11c-0.7-1.4-1.3-2.8-2-4.2l-0.7,0.3
			c0.6,4.9,1.1,9.8,1.9,16.3l0.1,1.2l-0.9-0.7c-17.2-13.5-27.2-27-30.6-41.3c-3.5-14.8,0.1-30.1,11-46.7
			c-13.7,10.5-16.3,25.4-19,41.1c-0.4,2.3-0.8,4.6-1.2,6.8l-0.2,1l-0.7-0.8c-9.9-11.5-10.2-20.8-5.7-50.6l-0.1,0.3
			c-1.8,3.8-3.6,7.6-5.3,11.4l-0.8,1.7l-0.1-1.9c-0.7-8.7-0.4-16.7,0.8-24.4c0.9-5.5,2.2-11,3.6-16.4c0.2-1,0.5-2,0.7-3
			c-11.2,22.6-14.5,47.2-9.9,73.3l0.1,0.5l-4.3,0.4l-6.3-23c-2.9,20.4,3.6,32.1,20.7,37.8l0.8,0.2l-3.5,3.6l-0.9-0.3
			c-7-2.7-14.1-5.3-21.1-8c5.7,7.8,13.9,12.6,24.9,14.5c8.7,1.5,16.2,6,24.2,14.4c5.4,5.7,11.4,11.1,17.1,16.3l2.2,2
			c2.2,2,4.6,4,6.9,5.9c3.6,3,7.3,6.2,10.7,9.6c1.6,1.7,2.4,4.1,3.1,6.3c0.3,0.9,0.5,1.7,0.8,2.4l0.5,1.3l-36.3-18.7
			c-0.2-0.1-0.3-0.2-0.5-0.3v35.8l35.5,10.3l0.1,0.1c0.2,0.3,0.3,0.6,0.4,0.9l0.4,1.3c2.1,7.1,4.6,15.1,3.3,22.1
			c-0.5,2.7-1.1,5.7-1.9,9.2l0,0.1l-19.1,56.2l-0.1,0L210.5,346.7z"/>
	</g>
</g>
<g>
	<g>
		<path d="M263.6,420.1L231,281.4l0.1-0.2l27.1-53.7l27.1,55.8l0,0.2L263.6,420.1z M232,281.6l31.4,133.3l20.8-131.4l-26.1-53.7
			L232,281.6z"/>
	</g>
</g>
<g>
	<g>
		<path d="M258.5,281.2l-66.4-70.4l0.7-0.7l65.7,49.8l65.4-48l0.7,0.8L258.5,281.2z M197,214.5l61.5,65.3l61.3-63.6l-61.3,45
			l-0.3-0.2L197,214.5z"/>
	</g>
</g>
<g>
	<g>
		
			<rect x="260.5" y="228.5" transform="matrix(0.9997 -2.644571e-02 2.644571e-02 0.9997 -8.4507 7.0153)" width="1" height="189.1"/>
	</g>
</g>
<g>
	<g>
		<path d="M263,397l-0.4-0.4l-53.9-50.2l49.8-38.6l48.7,38.6L263,397z M210.3,346.5l52.6,49.1l42.9-49l-47.3-37.4L210.3,346.5z"/>
	</g>
</g>
<g>
	<g>
		<rect x="192.5" y="243" transform="matrix(0.9995 -3.025957e-02 3.025957e-02 0.9995 -7.2498 7.9336)" width="132.1" height="1"/>
	</g>
</g>
<g>
	<g>
		<polygon points="258.5,353.4 239.2,323.4 240.1,322.8 258.5,351.6 277.9,323.9 278.7,324.4 		"/>
	</g>
</g>
<g>
	<g>
		<rect x="191.6" y="327.1" transform="matrix(0.1543 -0.988 0.988 0.1543 -130.6343 502.5029)" width="73.1" height="1"/>
	</g>
</g>
<g>
	<g>
		<rect x="288.8" y="296.8" transform="matrix(0.9797 -0.2005 0.2005 0.9797 -60.404 64.6994)" width="1" height="67.6"/>
	</g>
</g>
<g>
	<g>
		<polygon points="244.2,215.9 187.1,186.9 187.1,186.7 170.1,154.7 170.9,154.3 187.9,186.1 244.7,215.1 		"/>
	</g>
</g>
<g>
	<g>
		<polygon points="284.7,206 284.3,205 330.9,189 347,154.3 348,154.7 331.7,189.8 		"/>
	</g>
</g>
<g>
	<g>
		<polygon points="209.2,194.9 176.1,166.1 148.2,145.9 148.8,145.1 176.8,165.3 209.8,194.1 		"/>
	</g>
</g>
<g>
	<g>
		<rect x="308.7" y="174" transform="matrix(0.7929 -0.6093 0.6093 0.7929 -35.6024 244.2428)" width="65.7" height="1"/>
	</g>
</g>
<g>
	<g>
		
			<rect x="120.2" y="112.2" transform="matrix(6.444501e-02 -0.9979 0.9979 6.444501e-02 35.8194 263.6271)" width="76.6" height="1"/>
	</g>
</g>
<g>
	<g>
		
			<rect x="333.8" y="137" transform="matrix(6.638941e-02 -0.9978 0.9978 6.638941e-02 197.8075 486.4048)" width="50.1" height="1"/>
	</g>
</g>
<g>
	<g>
		<polygon points="258.4,244.3 222.2,204.7 222.9,204 258.3,242.7 288.9,205.2 289.6,205.8 		"/>
	</g>
</g>
<g>
	<polygon points="259.8,298 259.6,297.8 230.3,281.9 230.7,281.1 259.8,296.8 284.2,281.1 284.8,281.9 	"/>
</g>
<g>
	<rect x="169.7" y="305" transform="matrix(0.1406 -0.9901 0.9901 0.1406 -89.764 507.5878)" width="155.6" height="1"/>
</g>
<g>
	<rect x="270.7" y="228.7" transform="matrix(0.9858 -0.1678 0.1678 0.9858 -47.659 49.8624)" width="1" height="156.4"/>
</g>
</svg>
